PathFileType	4	(X/Y/Z)
DataRate	CameraRate	NumFrames	NumMarkers	Units	OrigDataRate	OrigDataStartFrame	OrigNumFrames	
  120.0	  120.0	    4	     56	     mm	  120.0	      1	    688
Frame#	Time	LASI			RASI			LPSI			RPSI			RTH1			RTH2			RTH3			RLFC			RMFC			LTH1			LTH2			LTH3			LLFC			LMFC			RTB1			RTB2			RTB3			RLMAL			RMMAL			LTB1			LTB2			LTB3			LMMAL			LLMAL			RCAL			RTOE			RMT5			LCAL			LTOE			LMT5			LACR			RACR			CLAV			C7			LASH			LPSH			RASH			RPSH			RUA1			RUA2			RUA3			RLEL			RMEL			LUA1			LUA2			LUA3			LLEL			LMEL			RFAsuperior			RFAradius			RFAulna			LFAsuperior			LFAradius			LFAulna			RHJC			LHJC			
		X1	Y1	Z1	X2	Y2	Z2	X3	Y3	Z3	X4	Y4	Z4	X5	Y5	Z5	X6	Y6	Z6	X7	Y7	Z7	X8	Y8	Z8	X9	Y9	Z9	X10	Y10	Z10	X11	Y11	Z11	X12	Y12	Z12	X13	Y13	Z13	X14	Y14	Z14	X15	Y15	Z15	X16	Y16	Z16	X17	Y17	Z17	X18	Y18	Z18	X19	Y19	Z19	X20	Y20	Z20	X21	Y21	Z21	X22	Y22	Z22	X23	Y23	Z23	X24	Y24	Z24	X25	Y25	Z25	X26	Y26	Z26	X27	Y27	Z27	X28	Y28	Z28	X29	Y29	Z29	X30	Y30	Z30	X31	Y31	Z31	X32	Y32	Z32	X33	Y33	Z33	X34	Y34	Z34	X35	Y35	Z35	X36	Y36	Z36	X37	Y37	Z37	X38	Y38	Z38	X39	Y39	Z39	X40	Y40	Z40	X41	Y41	Z41	X42	Y42	Z42	X43	Y43	Z43	X44	Y44	Z44	X45	Y45	Z45	X46	Y46	Z46	X47	Y47	Z47	X48	Y48	Z48	X49	Y49	Z49	X50	Y50	Z50	X51	Y51	Z51	X52	Y52	Z52	X53	Y53	Z53	X54	Y54	Z54	X55	Y55	Z55	X56	Y56	Z56	

50	0.41667	622.05008	1017.35815	-669.70196	806.35965	1024.76869	-517.03189	564.30954	1044.87322	-498.11487	640.23052	1046.73295	-436.30910	816.52317	876.00822	-412.61019	850.23685	732.40276	-453.74147	803.58381	642.45626	-399.88045	828.90361	540.31210	-403.73897	727.52685	519.13729	-479.19984	505.88230	856.93865	-644.65658	543.97281	751.14128	-686.92539	492.43903	639.06840	-604.40950	488.94434	537.89329	-619.67050	591.60951	514.30948	-558.64023	820.31281	401.49495	-438.96197	831.68814	360.67615	-349.72297	816.90624	226.91609	-395.13021	808.67368	122.64084	-317.51155	754.26563	128.24690	-390.28039	524.16097	395.32019	-624.27781	446.87690	312.60952	-602.14622	500.99756	205.36972	-594.00322	523.40553	122.52083	-543.37208	434.32770	116.69642	-558.07690	726.20293	84.67164	-302.42677	858.82534	79.29545	-469.03634	925.62013	48.56575	-388.55221	452.18835	86.39412	-479.67440	556.42786	74.51094	-661.70442	454.63265	44.90364	-692.32620	486.11056	1516.73052	-570.75758	743.39374	1503.13736	-388.07187	696.14080	1463.98606	-552.32286	601.85268	1520.66114	-467.17109	545.83574	1492.85497	-620.04520	465.11435	1467.39855	-537.44759	779.04396	1477.90552	-455.32489	714.17964	1461.76829	-357.09130	806.38198	1470.47118	-346.36936	883.55186	1444.99292	-379.43498	880.30699	1397.60195	-309.06886	995.33275	1381.35060	-288.71223	979.49675	1328.29424	-320.53502	423.13298	1474.81750	-616.08308	407.49033	1399.82529	-632.57925	394.60504	1442.82559	-714.05557	316.38370	1380.94744	-781.95010	346.51357	1326.54763	-766.05219	1057.63439	1421.95935	-350.42120	1209.97566	1405.64439	-471.12260	1237.66733	1387.86170	-408.81271	352.36194	1412.66114	-850.38725	456.03133	1388.21372	-1026.42383	391.22505	1370.92322	-1045.63227	738.76909	968.51119	-491.85967	609.69608	956.82971	-598.04011	
51	0.42500	622.07205	1017.35761	-669.72472	806.38686	1024.76154	-517.09487	564.35648	1044.86301	-498.18321	640.29311	1046.73210	-436.37629	816.57312	875.99111	-412.75845	850.27514	732.41413	-453.79567	803.58630	642.45058	-399.95019	828.92811	540.31664	-403.80621	727.58928	519.17175	-479.27586	505.87067	856.93897	-644.67702	543.98176	750.95077	-686.89111	492.45645	639.08088	-604.42904	488.95703	537.88821	-619.68787	591.64339	514.29690	-558.66342	820.31828	401.48149	-438.96379	831.69176	360.65899	-349.80140	816.91555	226.93184	-395.17910	808.68592	122.64821	-317.52460	754.26969	128.25565	-390.28184	524.17018	395.31355	-624.29190	446.87796	312.63216	-602.16955	500.97194	205.34954	-593.94100	523.40625	122.51876	-543.36962	434.33471	116.70902	-558.07273	726.20098	84.68824	-302.42174	858.80754	79.31884	-469.05324	925.59646	48.56463	-388.54941	452.18012	86.39114	-479.68011	556.41661	74.51174	-661.71716	454.62626	44.89473	-692.31836	486.09536	1516.72196	-570.77893	743.39286	1503.13427	-388.12652	696.18624	1463.94484	-552.35749	601.87087	1520.66350	-467.17463	545.83808	1492.83595	-620.04958	465.11398	1467.39404	-537.45558	779.06721	1477.90763	-455.36645	714.18606	1461.77240	-357.10911	806.37319	1470.47336	-346.42208	883.56759	1445.00646	-379.49074	880.32816	1397.60543	-309.10963	995.37297	1381.35098	-288.79927	979.51915	1328.29555	-320.61212	423.14084	1474.80957	-616.07826	407.52074	1399.82378	-632.57667	394.62044	1442.80587	-714.06443	316.40979	1380.84023	-781.93239	346.50010	1326.52926	-766.02342	1057.65614	1421.95635	-350.52316	1209.98489	1405.69195	-471.39389	1237.68642	1387.87523	-408.93097	352.36996	1412.64337	-850.40190	455.82512	1387.63888	-1025.79183	391.65449	1370.79171	-1045.50651	738.80432	968.50636	-491.91246	609.72778	956.82641	-598.08793	
52	0.43333	622.08849	1017.35817	-669.74366	806.41845	1024.75718	-517.14618	564.40586	1044.85281	-498.23702	640.34631	1046.71656	-436.44559	816.63509	875.97214	-412.89565	850.31367	732.42296	-453.83825	803.60067	642.44628	-399.99919	828.95881	540.31762	-403.86015	727.63799	519.19998	-479.33377	505.86804	856.93659	-644.68866	543.99469	750.80658	-686.89828	492.47837	639.08742	-604.45307	488.96653	537.88594	-619.70306	591.67319	514.28806	-558.69009	820.32655	401.46720	-438.95686	831.70209	360.64537	-349.85277	816.92320	226.93418	-395.19773	808.69584	122.65180	-317.53483	754.26710	128.26276	-390.28162	524.17110	395.30604	-624.29319	446.87821	312.64934	-602.17823	500.94989	205.33166	-593.89068	523.40503	122.52047	-543.36638	434.34001	116.71989	-558.06827	726.20181	84.69908	-302.41721	858.79617	79.33335	-469.06559	925.59207	48.58636	-388.51729	452.17300	86.38847	-479.68856	556.40732	74.51236	-661.72380	454.61339	44.88019	-692.29998	486.08278	1516.70638	-570.79372	743.40248	1503.12818	-388.16073	696.22980	1463.90350	-552.39293	601.89003	1520.65675	-467.18364	545.83635	1492.82080	-620.05310	465.13050	1467.37071	-537.47104	779.08782	1477.91058	-455.39901	714.19928	1461.76727	-357.12562	806.37931	1470.47676	-346.45461	883.58555	1445.01462	-379.53452	880.34803	1397.60076	-309.15112	995.41211	1381.34550	-288.87752	979.54937	1328.29585	-320.68424	423.13674	1474.78686	-616.06618	407.54413	1399.80965	-632.57614	394.62590	1442.78729	-714.07024	316.41913	1380.76242	-781.91878	346.49070	1326.50541	-766.00628	1057.68502	1421.95255	-350.61139	1210.01731	1405.68076	-471.28933	1237.71331	1387.88858	-409.03441	352.36495	1412.62405	-850.40392	455.68480	1387.24034	-1025.35453	391.94918	1370.69264	-1045.41897	738.83941	968.50080	-491.95916	609.76180	956.82094	-598.13234	
53	0.44167	622.09803	1017.36056	-669.76106	806.45833	1024.75569	-517.18461	564.45898	1044.84122	-498.26942	640.39051	1046.68748	-436.50769	816.71435	875.95252	-413.00678	850.35426	732.42640	-453.86585	803.63220	642.44325	-400.02284	828.99855	540.31255	-403.89637	727.67837	519.23394	-479.38609	505.88013	856.93094	-644.69095	544.01422	750.73649	-686.96177	492.50535	639.08611	-604.48138	488.97238	537.88835	-619.71709	591.69784	514.28385	-558.71988	820.33807	401.45248	-438.94554	831.72365	360.63477	-349.86854	816.92812	226.91644	-395.17339	808.70332	122.65089	-317.54022	754.25614	128.26769	-390.27836	524.16129	395.29609	-624.27827	446.87764	312.65920	-602.16910	500.93635	205.32012	-593.86493	523.40159	122.52567	-543.36290	434.34302	116.72723	-558.06336	726.20554	84.70114	-302.41416	858.79272	79.33516	-469.07004	925.61348	48.63814	-388.44424	452.16965	86.38746	-479.69676	556.40016	74.51188	-661.72222	454.59404	44.86228	-692.27378	486.07600	1516.68117	-570.79897	743.42701	1503.11841	-388.16436	696.26818	1463.87049	-552.41978	601.91018	1520.63723	-467.19838	545.83037	1492.80968	-620.05513	465.16268	1467.32428	-537.49071	779.10516	1477.91260	-455.41962	714.22400	1461.74970	-357.14010	806.40773	1470.47978	-346.46178	883.60646	1445.01415	-379.56403	880.36578	1397.58310	-309.19501	995.45157	1381.33077	-288.94306	979.59104	1328.29267	-320.75241	423.11945	1474.74404	-616.04618	407.55882	1399.77952	-632.57735	394.61875	1442.76736	-714.07331	316.40539	1380.71983	-781.90886	346.48732	1326.47412	-766.00322	1057.72507	1421.94909	-350.67905	1210.07837	1405.59185	-470.72338	1237.75138	1387.90098	-409.11560	352.34414	1412.60186	-850.39252	455.65224	1387.09549	-1025.19879	392.04856	1370.63928	-1045.38336	738.87736	968.49398	-492.00002	609.79776	956.81403	-598.16981	
